<svg width="220" height="20" viewBox="0 0 220 20" fill="none" xmlns="http://www.w3.org/2000/svg">
<rect width="204" height="20" fill="#8CC4EC"/>
<path d="M11.4719 4.828H18.7839V6.476H13.3439V8.812H16.1599C17.2373 8.812 18.0853 9.13733 18.7039 9.788C19.3333 10.428 19.6479 11.2173 19.6479 12.156C19.6479 13.1053 19.3333 13.9 18.7039 14.54C18.0853 15.18 17.2373 15.5 16.1599 15.5H11.4719V4.828ZM15.9039 10.46H13.3439V13.852H15.9039C16.4373 13.852 16.8746 13.6973 17.2159 13.388C17.5573 13.0787 17.7279 12.668 17.7279 12.156C17.7279 11.644 17.5573 11.2333 17.2159 10.924C16.8746 10.6147 16.4373 10.46 15.9039 10.46ZM28.5183 15.5H21.2063V4.828H28.5183V6.476H23.0783V9.244H28.4063V10.892H23.0783V13.852H28.5183V15.5ZM35.5607 15.692C33.9607 15.692 32.6274 15.18 31.5607 14.156C30.494 13.1213 29.9607 11.7933 29.9607 10.172C29.9607 8.55067 30.494 7.228 31.5607 6.204C32.6274 5.16933 33.9607 4.652 35.5607 4.652C37.4167 4.652 38.846 5.452 39.8487 7.052L38.2487 7.868C37.982 7.40933 37.6034 7.036 37.1127 6.748C36.6327 6.46 36.1154 6.316 35.5607 6.316C34.5047 6.316 33.6247 6.67867 32.9207 7.404C32.2274 8.12933 31.8807 9.052 31.8807 10.172C31.8807 11.292 32.2274 12.2147 32.9207 12.94C33.6247 13.6653 34.5047 14.028 35.5607 14.028C36.126 14.028 36.6487 13.884 37.1287 13.596C37.6087 13.308 37.982 12.9347 38.2487 12.476L39.8487 13.292C38.8247 14.892 37.3954 15.692 35.5607 15.692ZM50.6429 15.5H48.7709V6.476H43.2189V15.5H41.3469V4.828H50.6429V15.5ZM52.2214 15.692V14.028C52.8401 14.028 53.3041 13.788 53.6134 13.308C53.9228 12.8173 54.1628 11.82 54.3334 10.316L54.9574 4.828H62.2054V15.5H60.3334V6.476H56.6374L56.1894 10.444C56.0614 11.5427 55.8801 12.4493 55.6454 13.164C55.4214 13.8787 55.1281 14.4173 54.7654 14.78C54.4134 15.132 54.0401 15.372 53.6454 15.5C53.2614 15.628 52.7868 15.692 52.2214 15.692ZM74.0719 15.5H71.9439L71.1599 13.452H66.2639L65.4799 15.5H63.3519L67.5439 4.828H69.8799L74.0719 15.5ZM70.6319 11.804L68.7119 6.716L66.7919 11.804H70.6319ZM78.6067 15.5H76.7347V6.476H73.5027V4.828H81.8387V6.476H78.6067V15.5ZM92.7211 15.5H90.8491V10.844H85.2971V15.5H83.4251V4.828H85.2971V9.196H90.8491V4.828H92.7211V15.5ZM104.588 15.5H102.46L101.676 13.452H96.7796L95.9956 15.5H93.8676L98.0596 4.828H100.396L104.588 15.5ZM101.148 11.804L99.2276 6.716L97.3076 11.804H101.148ZM107.433 15.5H105.273L107.881 11.308C107.177 11.1907 106.58 10.8653 106.089 10.332C105.599 9.788 105.353 9.068 105.353 8.172C105.353 7.18 105.673 6.37467 106.313 5.756C106.953 5.13733 107.796 4.828 108.841 4.828H113.529V15.5H111.657V11.516H109.801L107.433 15.5ZM109.097 9.868H111.657V6.476H109.097C108.564 6.476 108.127 6.63067 107.785 6.94C107.444 7.24933 107.273 7.66 107.273 8.172C107.273 8.684 107.444 9.09467 107.785 9.404C108.127 9.71333 108.564 9.868 109.097 9.868ZM119.221 17.468V14.028C119.648 13.9853 119.979 13.8787 120.213 13.708C120.448 13.5373 120.661 13.1853 120.853 12.652C121.056 12.1187 121.216 11.34 121.333 10.316L121.957 4.828H129.205V13.852H130.197V17.468H128.325V15.5H121.093V17.468H119.221ZM123.189 10.444C123.008 12.0227 122.539 13.1587 121.781 13.852H127.333V6.476H123.637L123.189 10.444ZM140.524 14.14C139.5 15.1747 138.194 15.692 136.604 15.692C135.015 15.692 133.708 15.1747 132.684 14.14C131.66 13.0947 131.148 11.772 131.148 10.172C131.148 8.572 131.66 7.25467 132.684 6.22C133.708 5.17467 135.015 4.652 136.604 4.652C138.194 4.652 139.5 5.17467 140.524 6.22C141.548 7.25467 142.06 8.572 142.06 10.172C142.06 11.772 141.548 13.0947 140.524 14.14ZM136.604 14.028C137.66 14.028 138.514 13.6653 139.164 12.94C139.815 12.204 140.14 11.2813 140.14 10.172C140.14 9.052 139.815 8.12933 139.164 7.404C138.514 6.67867 137.66 6.316 136.604 6.316C135.538 6.316 134.679 6.67867 134.028 7.404C133.388 8.12933 133.068 9.052 133.068 10.172C133.068 11.292 133.388 12.2147 134.028 12.94C134.679 13.6653 135.538 14.028 136.604 14.028ZM148.983 15.692C147.383 15.692 146.049 15.18 144.983 14.156C143.916 13.1213 143.383 11.7933 143.383 10.172C143.383 8.55067 143.916 7.228 144.983 6.204C146.049 5.16933 147.383 4.652 148.983 4.652C150.839 4.652 152.268 5.452 153.271 7.052L151.671 7.868C151.404 7.40933 151.025 7.036 150.535 6.748C150.055 6.46 149.537 6.316 148.983 6.316C147.927 6.316 147.047 6.67867 146.343 7.404C145.649 8.12933 145.303 9.052 145.303 10.172C145.303 11.292 145.649 12.2147 146.343 12.94C147.047 13.6653 147.927 14.028 148.983 14.028C149.548 14.028 150.071 13.884 150.551 13.596C151.031 13.308 151.404 12.9347 151.671 12.476L153.271 13.292C152.247 14.892 150.817 15.692 148.983 15.692ZM159.185 15.5H157.313V6.476H154.081V4.828H162.417V6.476H159.185V15.5ZM172.556 15.5H170.428L169.644 13.452H164.748L163.964 15.5H161.836L166.028 4.828H168.364L172.556 15.5ZM169.116 11.804L167.196 6.716L165.276 11.804H169.116ZM179.114 15.5H173.722V4.828H178.97C179.919 4.828 180.661 5.08933 181.194 5.612C181.738 6.124 182.01 6.76933 182.01 7.548C182.01 8.188 181.829 8.732 181.466 9.18C181.114 9.61733 180.677 9.88933 180.154 9.996C180.73 10.0813 181.215 10.38 181.61 10.892C182.015 11.3933 182.218 11.9693 182.218 12.62C182.218 13.4733 181.941 14.1667 181.386 14.7C180.842 15.2333 180.085 15.5 179.114 15.5ZM178.586 9.244C179.055 9.244 179.423 9.116 179.69 8.86C179.957 8.604 180.09 8.27333 180.09 7.868C180.09 7.452 179.957 7.116 179.69 6.86C179.423 6.604 179.055 6.476 178.586 6.476H175.594V9.244H178.586ZM178.666 13.852C179.178 13.852 179.578 13.724 179.866 13.468C180.154 13.2013 180.298 12.8333 180.298 12.364C180.298 11.948 180.154 11.6013 179.866 11.324C179.578 11.036 179.178 10.892 178.666 10.892H175.594V13.852H178.666ZM192.785 15.5H190.481L186.897 11.004L185.969 12.092V15.5H184.097V4.828H185.969V9.916L190.145 4.828H192.465L188.129 9.868L192.785 15.5ZM203.634 15.5H201.506L200.722 13.452H195.826L195.042 15.5H192.914L197.106 4.828H199.442L203.634 15.5ZM200.194 11.804L198.274 6.716L196.354 11.804H200.194Z" fill="white"/>
<path d="M220 0H204V20H220L213 10L220 0Z" fill="#8CC4EC"/>
</svg>
