<svg width="104" height="20" viewBox="0 0 104 20" fill="none" xmlns="http://www.w3.org/2000/svg">
<rect width="88" height="20" fill="#FF4D6D"/>
<path d="M20.4554 15.5H18.5834V10.844H13.0314V15.5H11.1594V4.828H13.0314V9.196H18.5834V4.828H20.4554V15.5ZM31.6179 14.14C30.5939 15.1747 29.2873 15.692 27.6979 15.692C26.1086 15.692 24.8019 15.1747 23.7779 14.14C22.7539 13.0947 22.2419 11.772 22.2419 10.172C22.2419 8.572 22.7539 7.25467 23.7779 6.22C24.8019 5.17467 26.1086 4.652 27.6979 4.652C29.2873 4.652 30.5939 5.17467 31.6179 6.22C32.6419 7.25467 33.1539 8.572 33.1539 10.172C33.1539 11.772 32.6419 13.0947 31.6179 14.14ZM27.6979 14.028C28.7539 14.028 29.6073 13.6653 30.2579 12.94C30.9086 12.204 31.2339 11.2813 31.2339 10.172C31.2339 9.052 30.9086 8.12933 30.2579 7.404C29.6073 6.67867 28.7539 6.316 27.6979 6.316C26.6313 6.316 25.7726 6.67867 25.1219 7.404C24.4819 8.12933 24.1619 9.052 24.1619 10.172C24.1619 11.292 24.4819 12.2147 25.1219 12.94C25.7726 13.6653 26.6313 14.028 27.6979 14.028ZM40.3483 15.5H34.9563V4.828H40.2043C41.1536 4.828 41.895 5.08933 42.4283 5.612C42.9723 6.124 43.2443 6.76933 43.2443 7.548C43.2443 8.188 43.063 8.732 42.7003 9.18C42.3483 9.61733 41.911 9.88933 41.3883 9.996C41.9643 10.0813 42.4496 10.38 42.8443 10.892C43.2496 11.3933 43.4523 11.9693 43.4523 12.62C43.4523 13.4733 43.175 14.1667 42.6203 14.7C42.0763 15.2333 41.319 15.5 40.3483 15.5ZM39.8203 9.244C40.2896 9.244 40.6576 9.116 40.9243 8.86C41.191 8.604 41.3243 8.27333 41.3243 7.868C41.3243 7.452 41.191 7.116 40.9243 6.86C40.6576 6.604 40.2896 6.476 39.8203 6.476H36.8283V9.244H39.8203ZM39.9003 13.852C40.4123 13.852 40.8123 13.724 41.1003 13.468C41.3883 13.2013 41.5323 12.8333 41.5323 12.364C41.5323 11.948 41.3883 11.6013 41.1003 11.324C40.8123 11.036 40.4123 10.892 39.9003 10.892H36.8283V13.852H39.9003ZM47.1393 15.5H45.3313V4.828H47.2033V12.236L52.6593 4.828H54.5793V15.5H52.7073V7.884L47.1393 15.5ZM66.1429 15.5H64.2709V10.844H58.7189V15.5H56.8469V4.828H58.7189V9.196H64.2709V4.828H66.1429V15.5ZM77.0974 15.5H74.7934L71.2094 11.004L70.2814 12.092V15.5H68.4094V4.828H70.2814V9.916L74.4574 4.828H76.7774L72.4414 9.868L77.0974 15.5ZM87.9469 15.5H85.8189L85.0349 13.452H80.1389L79.3549 15.5H77.2269L81.4189 4.828H83.7549L87.9469 15.5ZM84.5069 11.804L82.5869 6.716L80.6669 11.804H84.5069Z" fill="white"/>
<path d="M104 0H88V20H104L97 10L104 0Z" fill="#FF4D6D"/>
</svg>
