<svg width="184" height="20" viewBox="0 0 184 20" fill="none" xmlns="http://www.w3.org/2000/svg">
<rect width="168" height="20" fill="#FF4D6D"/>
<path d="M16.4123 15.692C14.8123 15.692 13.4789 15.18 12.4123 14.156C11.3456 13.1213 10.8123 11.7933 10.8123 10.172C10.8123 8.55067 11.3456 7.228 12.4123 6.204C13.4789 5.16933 14.8123 4.652 16.4123 4.652C18.2683 4.652 19.6976 5.452 20.7003 7.052L19.1003 7.868C18.8336 7.40933 18.4549 7.036 17.9643 6.748C17.4843 6.46 16.9669 6.316 16.4123 6.316C15.3563 6.316 14.4763 6.67867 13.7723 7.404C13.0789 8.12933 12.7323 9.052 12.7323 10.172C12.7323 11.292 13.0789 12.2147 13.7723 12.94C14.4763 13.6653 15.3563 14.028 16.4123 14.028C16.9776 14.028 17.5003 13.884 17.9803 13.596C18.4603 13.308 18.8336 12.9347 19.1003 12.476L20.7003 13.292C19.6763 14.892 18.2469 15.692 16.4123 15.692ZM21.4324 15.692V14.028C22.051 14.028 22.515 13.788 22.8244 13.308C23.1337 12.8173 23.3737 11.82 23.5444 10.316L24.1684 4.828H31.4164V15.5H29.5444V6.476H25.8484L25.4004 10.444C25.2724 11.5427 25.091 12.4493 24.8564 13.164C24.6324 13.8787 24.339 14.4173 23.9764 14.78C23.6244 15.132 23.251 15.372 22.8564 15.5C22.4724 15.628 21.9977 15.692 21.4324 15.692ZM43.2829 15.5H41.1549L40.3709 13.452H35.4749L34.6909 15.5H32.5629L36.7549 4.828H39.0909L43.2829 15.5ZM39.8429 11.804L37.9229 6.716L36.0029 11.804H39.8429ZM43.7605 17.468V14.028C44.1872 13.9853 44.5178 13.8787 44.7525 13.708C44.9872 13.5373 45.2005 13.1853 45.3925 12.652C45.5952 12.1187 45.7552 11.34 45.8725 10.316L46.4965 4.828H53.7445V13.852H54.7365V17.468H52.8645V15.5H45.6325V17.468H43.7605ZM47.7285 10.444C47.5472 12.0227 47.0778 13.1587 46.3205 13.852H51.8725V6.476H48.1765L47.7285 10.444ZM64.8553 15.5H62.5513L58.9673 11.004L58.0393 12.092V15.5H56.1673V4.828H58.0393V9.916L62.2153 4.828H64.5353L60.1993 9.868L64.8553 15.5ZM75.7048 15.5H73.5768L72.7928 13.452H67.8968L67.1128 15.5H64.9848L69.1768 4.828H71.5128L75.7048 15.5ZM72.2648 11.804L70.3448 6.716L68.4248 11.804H72.2648ZM78.5504 15.5H76.3904L78.9984 11.308C78.2944 11.1907 77.697 10.8653 77.2064 10.332C76.7157 9.788 76.4704 9.068 76.4704 8.172C76.4704 7.18 76.7904 6.37467 77.4304 5.756C78.0704 5.13733 78.913 4.828 79.9584 4.828H84.6464V15.5H82.7744V11.516H80.9184L78.5504 15.5ZM80.2144 9.868H82.7744V6.476H80.2144C79.681 6.476 79.2437 6.63067 78.9024 6.94C78.561 7.24933 78.3904 7.66 78.3904 8.172C78.3904 8.684 78.561 9.09467 78.9024 9.404C79.2437 9.71333 79.681 9.868 80.2144 9.868ZM100.323 15.5H98.4506V10.844H92.8986V15.5H91.0266V4.828H92.8986V9.196H98.4506V4.828H100.323V15.5ZM111.485 14.14C110.461 15.1747 109.154 15.692 107.565 15.692C105.976 15.692 104.669 15.1747 103.645 14.14C102.621 13.0947 102.109 11.772 102.109 10.172C102.109 8.572 102.621 7.25467 103.645 6.22C104.669 5.17467 105.976 4.652 107.565 4.652C109.154 4.652 110.461 5.17467 111.485 6.22C112.509 7.25467 113.021 8.572 113.021 10.172C113.021 11.772 112.509 13.0947 111.485 14.14ZM107.565 14.028C108.621 14.028 109.474 13.6653 110.125 12.94C110.776 12.204 111.101 11.2813 111.101 10.172C111.101 9.052 110.776 8.12933 110.125 7.404C109.474 6.67867 108.621 6.316 107.565 6.316C106.498 6.316 105.64 6.67867 104.989 7.404C104.349 8.12933 104.029 9.052 104.029 10.172C104.029 11.292 104.349 12.2147 104.989 12.94C105.64 13.6653 106.498 14.028 107.565 14.028ZM120.216 15.5H114.824V4.828H120.072C121.021 4.828 121.762 5.08933 122.296 5.612C122.84 6.124 123.112 6.76933 123.112 7.548C123.112 8.188 122.93 8.732 122.568 9.18C122.216 9.61733 121.778 9.88933 121.256 9.996C121.832 10.0813 122.317 10.38 122.712 10.892C123.117 11.3933 123.32 11.9693 123.32 12.62C123.32 13.4733 123.042 14.1667 122.488 14.7C121.944 15.2333 121.186 15.5 120.216 15.5ZM119.688 9.244C120.157 9.244 120.525 9.116 120.792 8.86C121.058 8.604 121.192 8.27333 121.192 7.868C121.192 7.452 121.058 7.116 120.792 6.86C120.525 6.604 120.157 6.476 119.688 6.476H116.696V9.244H119.688ZM119.768 13.852C120.28 13.852 120.68 13.724 120.968 13.468C121.256 13.2013 121.4 12.8333 121.4 12.364C121.4 11.948 121.256 11.6013 120.968 11.324C120.68 11.036 120.28 10.892 119.768 10.892H116.696V13.852H119.768ZM127.007 15.5H125.199V4.828H127.071V12.236L132.527 4.828H134.447V15.5H132.575V7.884L127.007 15.5ZM146.01 15.5H144.138V10.844H138.586V15.5H136.714V4.828H138.586V9.196H144.138V4.828H146.01V15.5ZM156.965 15.5H154.661L151.077 11.004L150.149 12.092V15.5H148.277V4.828H150.149V9.916L154.325 4.828H156.645L152.309 9.868L156.965 15.5ZM167.814 15.5H165.686L164.902 13.452H160.006L159.222 15.5H157.094L161.286 4.828H163.622L167.814 15.5ZM164.374 11.804L162.454 6.716L160.534 11.804H164.374Z" fill="white"/>
<path d="M184 0H168V20H184L177 10L184 0Z" fill="#FF4D6D"/>
</svg>
